<?xml version="1.0" standalone="no"?><!-- Generator: Gravit.io --><svg xmlns="http://www.w3.org/2000/svg" xmlns:xlink="http://www.w3.org/1999/xlink" style="isolation:isolate" viewBox="0 -1379 2972 2379" width="2972" height="2379"><defs><clipPath id="_clipPath_jINCbqyVuBZRjrVqnry2Vs30oIJZPIU9"><rect x="0" y="-1379" width="2972" height="2379"/></clipPath></defs><g clip-path="url(#_clipPath_jINCbqyVuBZRjrVqnry2Vs30oIJZPIU9)"><rect x="0" y="0" width="1000" height="1000" transform="matrix(1,0,0,1,0,0)" fill="rgb(237,240,239)"/><path d=" M 0 0 L 0 1000 L 1000 1000 L 1000 0 L 0 0 L 0 0 Z  M 102.307 205.461 L 900.545 205.461 C 915.951 205.61 925.478 219.034 924.982 229.316 L 924.982 733.689 C 925.118 746.089 917.453 759.553 900.715 759.434 L 854.613 759.434 L 854.613 784.107 C 854.728 788.107 855.06 793.726 846.869 794.055 L 782.791 794.055 C 776.737 794.078 772.675 791.062 772.787 784.107 L 772.787 759.434 L 228.602 759.434 L 228.602 785.883 C 228.666 791.067 224.838 794.457 219.676 794.539 L 153.805 794.539 C 149.274 794.596 146.583 791.109 146.719 785.883 L 146.719 759.434 L 102.307 759.434 C 91.396 760.608 76.198 753.024 76.473 733.391 L 75 231.34 C 75.415 218.976 88.465 206.046 102.307 205.461 Z  M 158.264 260.105 C 146.568 259.973 137.953 266.132 137.412 279.965 L 137.412 681.9 C 136.985 694.162 146.443 702.685 157.408 702.869 L 210.314 702.869 C 385.981 703.162 444.645 535.382 602.973 702.869 L 675.244 702.869 C 643.5 654.559 630.117 592.767 621.592 531.227 C 619.893 513.138 619.271 453.952 620.566 433.631 C 624.55 374.285 636.044 317.976 664.645 260.105 L 158.264 260.105 L 158.264 260.105 Z  M 373.998 414.416 C 376.632 414.348 379.54 415.193 383.094 416.992 C 404.111 427.63 413.406 442.681 406.648 455.135 C 402.344 463.068 394.739 468.035 374.797 475.943 C 361.403 481.255 356.03 487.514 356.988 496.688 C 357.601 502.552 359.323 505.611 365.02 510.953 C 368.443 514.164 376.818 519.681 380.385 521.076 C 382.909 522.064 382.753 525.111 380.119 526.234 C 376.446 527.801 371.575 527.375 367.006 525.088 C 350.24 516.693 340.44 505.525 340.48 494.857 C 340.507 487.951 347.139 479.105 356.07 474.064 C 358.47 472.71 364.668 470.001 369.846 468.045 C 386.228 461.855 392.917 455.682 392.967 446.705 C 393.012 438.449 386.356 430.352 373.541 423.074 C 366.567 419.114 365.61 417.336 369.473 415.516 C 370.936 414.826 372.418 414.457 373.998 414.416 Z  M 279.945 414.422 C 283.243 414.422 288.386 416.653 294.799 420.865 C 303.763 426.753 306.031 428.786 310.5 434.941 C 314.229 440.079 314.737 449.553 311.598 455.404 C 307.44 463.154 299.133 468.847 284.588 473.912 C 265.417 480.588 257.978 490.457 263.26 502.209 C 265.495 507.182 272.913 514.158 279.92 517.875 C 286.989 521.626 288.456 522.937 287.527 524.682 C 286.665 526.3 283.878 527.141 279.373 527.141 C 277.067 527.141 274.762 526.421 271.037 524.541 C 260.796 519.371 252.398 512.189 248.572 505.328 C 245.583 499.967 245.331 491.582 248.014 486.711 C 252.506 478.554 258.631 474.6 280.99 465.428 C 284.866 463.838 289.404 461.439 291.074 460.096 C 294.844 457.064 298.668 450.183 298.641 446.48 C 298.586 438.991 291.216 430.273 278.988 423.236 C 275.124 421.012 271.961 418.724 271.961 418.15 C 271.961 416.788 277.027 414.422 279.945 414.422 Z  M 468.848 414.514 C 470.95 414.472 473.223 415.104 476.373 416.445 C 486.785 420.879 497.129 429.463 501.297 437.129 C 503.789 441.713 504.093 450.05 501.924 454.365 C 499.841 458.509 492.421 465.651 487.26 468.479 C 484.902 469.77 478.832 472.311 473.771 474.127 C 459.536 479.235 452.802 484.992 451.25 493.379 C 449.775 501.353 457.806 511.682 471.037 518.83 C 477.992 522.588 478.927 524.247 475.109 526.047 C 471.144 527.916 466.599 527.464 460.953 524.641 C 441.325 514.826 432.03 500.673 436.881 487.98 C 438.477 483.803 445.798 476.708 451.969 473.357 C 454.624 471.916 460.841 469.285 465.783 467.512 C 475.205 464.131 479.984 461.204 484.559 456.008 C 486.815 453.445 487.21 452.023 487.213 446.432 C 487.215 440.996 486.759 439.253 484.566 436.309 C 481.183 431.766 474.361 426.309 467.703 422.818 C 460.88 419.241 460.022 417.653 463.918 415.816 C 465.68 414.986 467.212 414.546 468.848 414.514 Z  M 823.564 419.127 C 793.477 419.127 769.085 443.518 769.084 473.605 C 769.084 503.694 793.476 528.086 823.564 528.086 C 853.653 528.086 878.045 503.694 878.045 473.605 C 878.044 443.518 853.652 419.127 823.564 419.127 L 823.564 419.127 Z  M 823.564 436.383 C 844.122 436.383 860.787 453.048 860.787 473.605 C 860.788 483.478 856.866 492.946 849.885 499.927 C 842.905 506.908 833.437 510.83 823.564 510.83 C 813.692 510.83 804.224 506.908 797.243 499.927 C 790.263 492.946 786.341 483.478 786.342 473.605 C 786.342 453.048 803.007 436.383 823.564 436.383 L 823.564 436.383 Z " fill="rgb(255,255,255)"/><rect x="1972" y="-1379" width="1000" height="1000" transform="matrix(1,0,0,1,0,0)" fill="rgb(234,231,150)"/><path d=" M 2607.59 -1076.561 C 2584.036 -1028.903 2574.571 -982.53 2571.29 -933.657 C 2570.223 -916.921 2570.736 -868.18 2572.135 -853.283 C 2579.156 -802.603 2590.175 -751.716 2616.318 -711.931 L 2556.801 -711.931 C 2426.414 -849.861 2378.102 -711.689 2233.435 -711.931 L 2189.865 -711.931 C 2180.835 -712.082 2173.046 -719.102 2173.398 -729.199 L 2173.398 -1060.205 C 2173.844 -1071.596 2180.938 -1076.67 2190.57 -1076.561 L 2607.59 -1076.561 Z  M 2144.487 -1121.562 C 2133.088 -1121.08 2122.342 -1110.432 2122 -1100.25 L 2123.213 -686.795 C 2122.986 -670.627 2135.502 -664.381 2144.487 -665.348 L 2181.063 -665.348 L 2181.063 -643.567 C 2180.952 -639.263 2183.167 -636.392 2186.898 -636.439 L 2241.144 -636.439 C 2245.395 -636.507 2248.548 -639.298 2248.495 -643.567 L 2248.495 -665.348 L 2696.648 -665.348 L 2696.648 -645.029 C 2696.555 -639.301 2699.9 -636.818 2704.886 -636.837 L 2757.658 -636.837 C 2764.403 -637.108 2764.129 -641.735 2764.034 -645.029 L 2764.034 -665.348 L 2802 -665.348 C 2815.785 -665.25 2822.096 -676.339 2821.985 -686.55 L 2821.985 -1101.916 C 2822.393 -1110.384 2814.547 -1121.439 2801.86 -1121.562 L 2144.487 -1121.562 Z " fill="rgb(130,148,88)"/><path d=" M 2738.465 -945.602 C 2763.244 -945.602 2783.331 -925.516 2783.332 -900.737 C 2783.332 -888.838 2778.605 -877.425 2770.191 -869.011 C 2761.776 -860.597 2750.364 -855.87 2738.465 -855.87 C 2726.566 -855.87 2715.153 -860.597 2706.739 -869.011 C 2698.325 -877.426 2693.598 -888.838 2693.598 -900.737 C 2693.599 -925.516 2713.686 -945.602 2738.465 -945.602 L 2738.465 -945.602 Z " fill="rgb(234,231,150)"/><path d=" M 2769.119 -900.736 C 2769.119 -892.606 2765.889 -884.809 2760.14 -879.06 C 2754.391 -873.311 2746.594 -870.082 2738.464 -870.082 C 2721.535 -870.082 2707.81 -883.806 2707.81 -900.736 C 2707.81 -917.666 2721.535 -931.39 2738.464 -931.39 C 2746.594 -931.39 2754.391 -928.16 2760.14 -922.412 C 2765.889 -916.663 2769.119 -908.866 2769.119 -900.736 Z " fill="rgb(130,148,88)"/><path d=" M 2439.844 -858.707 C 2423.679 -866.789 2416.026 -878.446 2420.02 -888.898 C 2421.335 -892.338 2427.364 -898.182 2432.446 -900.941 C 2434.633 -902.128 2439.751 -904.294 2443.821 -905.754 C 2451.58 -908.538 2455.516 -910.951 2459.284 -915.229 C 2461.142 -917.34 2461.466 -918.511 2461.469 -923.115 C 2461.47 -927.591 2461.096 -929.027 2459.29 -931.452 C 2456.504 -935.192 2450.886 -939.687 2445.403 -942.562 C 2439.784 -945.508 2439.077 -946.815 2442.285 -948.327 C 2445.603 -949.891 2447.931 -949.773 2452.543 -947.809 C 2461.117 -944.158 2469.636 -937.089 2473.068 -930.776 C 2475.12 -927.001 2475.37 -920.135 2473.584 -916.581 C 2471.869 -913.169 2465.758 -907.288 2461.507 -904.959 C 2459.566 -903.896 2454.568 -901.802 2450.4 -900.307 C 2438.677 -896.1 2433.131 -891.36 2431.853 -884.453 C 2430.638 -877.887 2437.252 -869.379 2448.148 -863.492 C 2453.876 -860.398 2454.646 -859.032 2451.502 -857.55 C 2448.236 -856.011 2444.493 -856.382 2439.844 -858.707 L 2439.844 -858.707 Z  M 2362.476 -858.339 C 2348.668 -865.252 2340.597 -874.45 2340.631 -883.236 C 2340.652 -888.923 2346.114 -896.208 2353.469 -900.359 C 2355.445 -901.474 2360.55 -903.705 2364.814 -905.316 C 2378.306 -910.413 2383.814 -915.497 2383.855 -922.89 C 2383.893 -929.689 2378.411 -936.357 2367.857 -942.35 C 2362.114 -945.612 2361.326 -947.076 2364.507 -948.575 C 2367.721 -950.09 2371.041 -949.73 2375.725 -947.36 C 2393.033 -938.599 2400.687 -926.204 2395.122 -915.949 C 2391.577 -909.415 2385.315 -905.324 2368.892 -898.811 C 2357.862 -894.436 2353.437 -889.282 2354.226 -881.727 C 2354.731 -876.898 2356.149 -874.38 2360.84 -869.98 C 2363.659 -867.336 2370.557 -862.792 2373.494 -861.643 C 2375.573 -860.83 2375.443 -858.32 2373.274 -857.395 C 2370.249 -856.104 2366.238 -856.455 2362.476 -858.339 L 2362.476 -858.339 Z  M 2283.443 -858.79 C 2275.009 -863.048 2268.093 -868.963 2264.942 -874.613 C 2262.48 -879.028 2262.273 -885.932 2264.482 -889.944 C 2268.181 -896.662 2273.226 -899.917 2291.639 -907.471 C 2294.831 -908.78 2298.568 -910.757 2299.943 -911.863 C 2303.047 -914.36 2306.197 -920.026 2306.174 -923.075 C 2306.13 -929.243 2300.06 -936.422 2289.99 -942.217 C 2286.807 -944.048 2284.203 -945.933 2284.203 -946.405 C 2284.203 -947.528 2288.375 -949.476 2290.778 -949.476 C 2293.495 -949.476 2297.73 -947.639 2303.011 -944.17 C 2310.394 -939.321 2312.261 -937.648 2315.94 -932.578 C 2319.012 -928.347 2319.431 -920.544 2316.845 -915.725 C 2313.421 -909.343 2306.58 -904.656 2294.602 -900.484 C 2278.814 -894.987 2272.687 -886.859 2277.037 -877.181 C 2278.877 -873.086 2284.987 -867.341 2290.758 -864.28 C 2296.58 -861.191 2297.787 -860.111 2297.022 -858.674 C 2296.312 -857.341 2294.017 -856.649 2290.308 -856.649 C 2288.408 -856.649 2286.51 -857.241 2283.443 -858.79 L 2283.443 -858.79 Z " fill="rgb(130,148,88)"/></g></svg>